<?xml version="1.0" encoding="UTF-8" standalone="no"?>
<svg width="100" height="100" viewBox="0 0 100 100" fill="none" xmlns="http://www.w3.org/2000/svg">
  <\!-- Face background -->
  <rect x="10" y="10" width="80" height="80" rx="15" ry="15" fill="#23252F" stroke="#8A7CFF" stroke-width="2"/>
  
  <\!-- Face details -->
  <rect x="25" y="15" width="50" height="3" rx="1" ry="1" fill="#8A7CFF" opacity="0.5"/>
  <line x1="20" y1="82" x2="80" y2="82" stroke="#8A7CFF" stroke-width="0.5" opacity="0.7"/>
  <rect x="14" y="30" width="2" height="40" fill="#8A7CFF" opacity="0.3"/>
  <rect x="84" y="30" width="2" height="40" fill="#8A7CFF" opacity="0.3"/>
  
  <\!-- Eyes -->
  <rect x="25" y="30" width="18" height="12" rx="3" ry="3" fill="#16171E" stroke="#8A7CFF" stroke-width="1"/>
  <rect x="57" y="30" width="18" height="12" rx="3" ry="3" fill="#16171E" stroke="#8A7CFF" stroke-width="1"/>
  <rect x="30" y="33" width="8" height="6" rx="1" ry="1" fill="#8A7CFF"/>
  <rect x="62" y="33" width="8" height="6" rx="1" ry="1" fill="#8A7CFF"/>
  
  <\!-- Mouth -->
  <rect x="30" y="55" width="40" height="15" rx="3" ry="3" fill="#16171E" stroke="#8A7CFF" stroke-width="1"/>
  
  <\!-- Speaker grid -->
  <line x1="32" y1="60" x2="68" y2="60" stroke="#8A7CFF" stroke-width="0.5" opacity="0.5"/>
  <line x1="32" y1="63" x2="68" y2="63" stroke="#8A7CFF" stroke-width="0.5" opacity="0.5"/>
  <line x1="32" y1="66" x2="68" y2="66" stroke="#8A7CFF" stroke-width="0.5" opacity="0.5"/>
  
  <line x1="37" y1="57" x2="37" y2="68" stroke="#8A7CFF" stroke-width="0.5" opacity="0.5"/>
  <line x1="44" y1="57" x2="44" y2="68" stroke="#8A7CFF" stroke-width="0.5" opacity="0.5"/>
  <line x1="51" y1="57" x2="51" y2="68" stroke="#8A7CFF" stroke-width="0.5" opacity="0.5"/>
  <line x1="58" y1="57" x2="58" y2="68" stroke="#8A7CFF" stroke-width="0.5" opacity="0.5"/>
  <line x1="65" y1="57" x2="65" y2="68" stroke="#8A7CFF" stroke-width="0.5" opacity="0.5"/>
  
  <\!-- LED indicators -->
  <rect x="25" y="75" width="50" height="5" rx="2" ry="2" fill="#16171E" stroke="#8A7CFF" stroke-width="0.5" opacity="0.7"/>
  <circle cx="30" cy="77.5" r="1.5" fill="#8A7CFF" opacity="0.3"/>
  <circle cx="40" cy="77.5" r="1.5" fill="#8A7CFF" opacity="0.3"/>
  <circle cx="50" cy="77.5" r="1.5" fill="#8A7CFF" opacity="0.3"/>
  <circle cx="60" cy="77.5" r="1.5" fill="#8A7CFF" opacity="0.3"/>
  <circle cx="70" cy="77.5" r="1.5" fill="#8A7CFF" opacity="0.3"/>
</svg>
